<?xml version="1.0" encoding="UTF-8"?>
<!--Generator: Apple Native CoreSVG 341-->
<!DOCTYPE svg
PUBLIC "-//W3C//DTD SVG 1.1//EN"
       "http://www.w3.org/Graphics/SVG/1.1/DTD/svg11.dtd">
<svg version="1.1" xmlns="http://www.w3.org/2000/svg" xmlns:xlink="http://www.w3.org/1999/xlink" viewBox="0 0 16.6455 16.2891">
 <g>
  <rect height="16.2891" opacity="0" width="16.6455" x="0" y="0"/>
  <path d="M16.2842 8.13965C16.2842 12.6318 12.6367 16.2793 8.13965 16.2793C3.64746 16.2793 0 12.6318 0 8.13965C0 3.64746 3.64746 0 8.13965 0C12.6367 0 16.2842 3.64746 16.2842 8.13965ZM9.41895 4.99512L8.22754 6.83594L8.16406 6.83594L6.92871 4.99023C6.61621 4.50684 6.37695 4.35059 5.95215 4.35059C5.39551 4.35059 4.98535 4.73633 4.98535 5.26367C4.98535 5.52734 5.06836 5.73242 5.2832 6.01074L6.84082 8.08594L5.21484 10.249C5.01953 10.5078 4.94141 10.7129 4.94141 10.9668C4.94141 11.4893 5.33203 11.8604 5.88379 11.8604C6.30371 11.8604 6.52344 11.7041 6.85059 11.2061L8.10547 9.37012L8.16406 9.37012L9.38477 11.2061C9.69238 11.6943 9.92676 11.8604 10.3516 11.8604C10.9229 11.8604 11.3184 11.4893 11.3184 10.9521C11.3184 10.6982 11.2354 10.4883 11.04 10.2295L9.42871 8.11035L11.0449 5.97168C11.2451 5.71289 11.3281 5.48828 11.3281 5.24902C11.3281 4.72168 10.9326 4.35059 10.376 4.35059C9.95117 4.35059 9.70703 4.5166 9.41895 4.99512Z" fill="#485c11"/>
 </g>
</svg>
