<?xml version="1.0" encoding="UTF-8"?>
<!--Generator: Apple Native CoreSVG 341-->
<!DOCTYPE svg
PUBLIC "-//W3C//DTD SVG 1.1//EN"
       "http://www.w3.org/Graphics/SVG/1.1/DTD/svg11.dtd">
<svg version="1.1" xmlns="http://www.w3.org/2000/svg" xmlns:xlink="http://www.w3.org/1999/xlink" viewBox="0 0 16.6455 16.2891">
 <g>
  <rect height="16.2891" opacity="0" width="16.6455" x="0" y="0"/>
  <path d="M16.2842 8.13965C16.2842 12.6318 12.6367 16.2793 8.13965 16.2793C3.64746 16.2793 0 12.6318 0 8.13965C0 3.64746 3.64746 0 8.13965 0C12.6367 0 16.2842 3.64746 16.2842 8.13965ZM9.91699 5.06836L8.14853 6.83151L6.38184 5.06836C6.19629 4.88281 5.97656 4.79492 5.70312 4.79492C5.1709 4.79492 4.76562 5.2002 4.76562 5.72754C4.76562 5.97168 4.86328 6.20605 5.04395 6.37695L6.81973 8.15631L5.04395 9.92676C4.86328 10.1025 4.76562 10.332 4.76562 10.5762C4.76562 11.1084 5.1709 11.5234 5.70312 11.5234C5.98145 11.5234 6.20605 11.4258 6.3916 11.2451L8.14697 9.48622L9.90234 11.2451C10.083 11.4258 10.3125 11.5234 10.5957 11.5234C11.1182 11.5234 11.5283 11.1084 11.5283 10.5762C11.5283 10.332 11.4258 10.1025 11.25 9.92676L9.4751 8.15542L11.25 6.37695C11.4258 6.20605 11.5283 5.97168 11.5283 5.72754C11.5283 5.2002 11.1182 4.79492 10.5957 4.79492C10.3174 4.79492 10.0928 4.88281 9.91699 5.06836Z" fill="#3b4b0e"/>
 </g>
</svg>
